 http://imageshack.us/m/193/4811/aa9naq.jpg

Country.......: USA, United Arab Emirates
Genre.........: Comedy, Family
Date release..: 01.04.2010 [World]
Director......: Roger Kumble
Writers.......: Michael Carnes, Josh Gilbert
Duration......: 91 min.
More..........: http://www.imdb.com/title/tt0492389
Trailer.......: http://www.imdb.com/video/imdb/vi3783328793
Trailer.......:

Pilot :
In the Oregon wilderness, a real estate developer's new housing subdivision faces a unique group of protesters, local woodland creatures who don't want their homes disturbed.

Cats :
Brendan Fraser   	 ...  	Dan Sanders
Ricky Garcia 	... 	Frank
Eugene Cordero 	... 	Cheese
Patrice O Neal 	... 	Gus
Jim Norton 	... 	Hank
Brooke Shields 	... 	Tammy Sanders
Matt Prokop 	... 	Tyler Sanders
Billy Bush 	... 	Drill Sergeant
Ken Jeong 	... 	Neal Lyman
Angela Kinsey 	... 	Felder
Samantha Bee 	... 	Principal Baker
Alice Drummond 	... 	Mrs. Martin
Toby Huss 	... 	Wilson
Skyler Samuels 	... 	Amber
Gerry Bednob 	... 	Mr. Gupta 

Data Technical :
!!! SAMPLE !!!
Audio.....: English
Subtitles.: English .srt, Portugues .srt, Polish .txt
Format                           : AVI
Format/Info                      : Audio Video Interleave
File size                        : 701 MiB
Duration                         : 1h 31mn
Overall bit rate                 : 1 073 Kbps
Writing application              : VirtualDubMod 1.5.4.1 (build 2178/release)
Writing library                  : VirtualDubMod build 2178/release
Video
ID                               : 0
Format                           : MPEG-4 Visual
Format profile                   : Advanced Simple@L5
Format settings, BVOP            : Yes
Format settings, QPel            : No
Format settings, GMC             : No warppoints
Format settings, Matrix          : Default (H.263)
Muxing mode                      : Packed bitstream
Codec ID                         : DX50
Codec ID/Hint                    : DivX 5
Duration                         : 1h 31mn
Bit rate                         : 936 Kbps
Width                            : 608 pixels
Height                           : 336 pixels
Display aspect ratio             : 16:9
Frame rate                       : 23.976 fps
Color space                      : YUV
Chroma subsampling               : 4:2:0
Bit depth                        : 8 bits
Scan type                        : Progressive
Bits/(Pixel*Frame)               : 0.191
Stream size                      : 611 MiB (87%)
Writing library                  : XviD 1.2.1 (UTC 2008-12-04)
Audio
ID                               : 1
Format                           : MPEG Audio
Format version                   : Version 1
Format profile                   : Layer 3
Mode                             : Joint stereo
Mode extension                   : MS Stereo
Codec ID                         : 55
Codec ID/Hint                    : MP3
Duration                         : 1h 31mn
Bit rate mode                    : Constant
Bit rate                         : 128 Kbps
Channel(s)                       : 2 channels
Sampling rate                    : 48.0 KHz
Stream size                      : 83.6 MiB (12%)
Alignment                        : Aligned on interleaves
Interleave, duration             : 42 ms (1.00 video frame)
Interleave, preload duration     : 504 ms

Screen : 
http://imageshack.us/m/811/2025/furryvengeance2010s1.jpg 
http://imageshack.us/m/231/1920/furryvengeance2010s2.jpg 
http://imageshack.us/m/687/4244/furryvengeance2010s3.jpg 
http://imageshack.us/m/688/3373/furryvengeance2010s4.jpg 
http://imageshack.us/m/560/789/furryvengeance2010s5.jpg